<svg xmlns="http://www.w3.org/2000/svg" xmlns:svg="http://www.w3.org/2000/svg" id="Layer_1" x="0" y="0" enable-background="new 0 0 1024 1024" version="1.1" viewBox="0 0 1024 1024" xml:space="preserve"><metadata id="metadata997"/><defs id="defs995"><filter id="filter1125" width="1.115" height="1.125" x="-.058" y="-.063" color-interpolation-filters="sRGB"><feGaussianBlur id="feGaussianBlur1127" stdDeviation="10.515"/></filter></defs><style id="style947" type="text/css">.st0{fill:url(#SVGID_1_)}.st1{fill:url(#SVGID_2_)}.st2{fill:url(#SVGID_3_)}.st3{fill:url(#SVGID_4_)}.st4{fill:url(#SVGID_5_)}.st5{fill:url(#SVGID_6_)}</style><g id="Circle"><radialGradient id="SVGID_1_" cx="534.994" cy="1129.143" r="954.203" gradientTransform="matrix(1,0,0,-1,0,1026)" gradientUnits="userSpaceOnUse"><stop id="stop949" offset="0" stop-color="#FBFAFA"/><stop id="stop951" offset="1" stop-color="#D5D5D5"/></radialGradient><circle id="circle954" cx="512" cy="512" r="447" fill="url(#SVGID_1_)" class="st0"/><linearGradient id="SVGID_2_" x1="512" x2="512" y1="115.907" y2="923.091" gradientUnits="userSpaceOnUse"><stop id="stop956" offset=".136" stop-color="#14A2FB"/><stop id="stop958" offset="1" stop-color="#15369C"/></linearGradient><circle id="circle961" cx="512" cy="512" r="409" fill="url(#SVGID_2_)" class="st1"/></g><g id="g1019" fill="#000" fill-opacity="1" filter="url(#filter1125)" opacity=".15" transform="translate(0,16.538358)"><polygon id="polygon1007" fill="#000" fill-opacity="1" points="512 385 480 488.4 396.1 488.4 472.3 281.5 551.1 281.5 629 488.4 547.6 488.4" class="st2"/><polygon id="polygon1009" fill="#000" fill-opacity="1" points="322.6 685.1 414.1 685.1 437.7 616.5 347.7 616.5" class="st3"/><polygon id="polygon1011" fill="#000" fill-opacity="1" points="702.5 685.1 611 685.1 587.3 616.5 677.4 616.5" class="st4"/><path id="path1013" fill="#000" fill-opacity="1" d="M 684.6,506.9 H 341.2 c -25.9,0 -47.1,21.2 -47.1,47.1 v 0 c 0,25.9 21.2,47.1 47.1,47.1 h 343.4 c 25.9,0 47.1,-21.2 47.1,-47.1 v 0 c 0.1,-25.9 -21.1,-47.1 -47.1,-47.1 z M 538.7,578.4 H 344.3 c -14.7,0 -26.7,-10.5 -26.7,-23.4 0,-12.9 12,-23.4 26.7,-23.4 h 194.3 c 14.7,0 26.7,10.5 26.7,23.4 0,12.9 -12,23.4 -26.6,23.4 z" class="st5"/></g><radialGradient id="SVGID_3_" cx="513.93" cy="78.6" r="879.367" gradientUnits="userSpaceOnUse"><stop id="stop964" offset="0" stop-color="#FBFAFA"/><stop id="stop966" offset="1" stop-color="#D5D5D5"/></radialGradient><polygon id="polygon969" points="396.1 488.4 472.3 281.5 551.1 281.5 629 488.4 547.6 488.4 512 385 480 488.4" class="st2"/><radialGradient id="SVGID_4_" cx="513.93" cy="78.6" r="879.367" gradientUnits="userSpaceOnUse"><stop id="stop971" offset="0" stop-color="#FBFAFA"/><stop id="stop973" offset="1" stop-color="#D5D5D5"/></radialGradient><polygon id="polygon976" points="347.7 616.5 322.6 685.1 414.1 685.1 437.7 616.5" class="st3"/><radialGradient id="SVGID_5_" cx="513.93" cy="78.6" r="879.367" gradientUnits="userSpaceOnUse"><stop id="stop978" offset="0" stop-color="#FBFAFA"/><stop id="stop980" offset="1" stop-color="#D5D5D5"/></radialGradient><polygon id="polygon983" points="677.4 616.5 702.5 685.1 611 685.1 587.3 616.5" class="st4"/><radialGradient id="SVGID_6_" cx="513.93" cy="78.6" r="879.367" gradientUnits="userSpaceOnUse"><stop id="stop985" offset="0" stop-color="#FBFAFA"/><stop id="stop987" offset="1" stop-color="#D5D5D5"/></radialGradient><path id="path990" d="M684.6,506.9H341.2c-25.9,0-47.1,21.2-47.1,47.1v0c0,25.9,21.2,47.1,47.1,47.1h343.4 c25.9,0,47.1-21.2,47.1-47.1v0C731.8,528.1,710.6,506.9,684.6,506.9z M538.7,578.4H344.3c-14.7,0-26.7-10.5-26.7-23.4 s12-23.4,26.7-23.4h194.3c14.7,0,26.7,10.5,26.7,23.4S553.3,578.4,538.7,578.4z" class="st5"/></svg>